<svg version="1.1" xmlns="http://www.w3.org/2000/svg" viewBox="0 0 930 534.19921875" width="930" height="534.19921875">
  <!-- svg-source:excalidraw -->
  
  <defs>
    <style>
      @font-face {
        font-family: "Virgil";
        src: url("https://excalidraw.com/Virgil.woff2");
      }
      @font-face {
        font-family: "Cascadia";
        src: url("https://excalidraw.com/Cascadia.woff2");
      }
    </style>
  </defs>
  <rect x="0" y="0" width="930" height="534.19921875" fill="#ffffff"></rect><g stroke-linecap="round" transform="translate(297.03125 383.35546875) rotate(0 57.5 30)"><path d="M3.99 3.47 C3.99 3.47, 3.99 3.47, 3.99 3.47 M3.99 3.47 C3.99 3.47, 3.99 3.47, 3.99 3.47 M1.11 12.89 C3.4 8.8, 6.11 6.64, 10.29 2.32 M1.11 12.89 C3.52 9.61, 6.38 5.85, 10.29 2.32 M1.5 18.53 C4.01 14.49, 9.58 10.64, 16.59 1.17 M1.5 18.53 C6.89 11.6, 12.02 5.98, 16.59 1.17 M1.24 24.93 C8.57 19.58, 14.22 13.7, 21.58 1.53 M1.24 24.93 C6.54 18.28, 14.52 10.97, 21.58 1.53 M1.63 30.57 C8.45 24.19, 13.19 18.55, 27.22 1.14 M1.63 30.57 C9.56 19.16, 19.29 10.12, 27.22 1.14 M1.37 36.97 C11.87 27.18, 20.52 17.5, 32.21 1.5 M1.37 36.97 C11.69 23.89, 22.01 12.75, 32.21 1.5 M1.11 43.37 C9.33 32.15, 18.86 22.75, 37.85 1.1 M1.11 43.37 C14.8 26.91, 28.29 12.3, 37.85 1.1 M1.51 49.01 C12.17 36.78, 20.37 26.55, 42.84 1.46 M1.51 49.01 C10.86 37.85, 20.99 25.61, 42.84 1.46 M2.56 53.9 C19.25 32.27, 37.11 13.59, 48.48 1.07 M2.56 53.9 C16.7 36.54, 32.34 20.16, 48.48 1.07 M4.92 57.28 C23.32 35.07, 43.81 12.47, 53.47 1.43 M4.92 57.28 C19.25 41.05, 33.11 25.05, 53.47 1.43 M7.94 59.9 C22.8 42.73, 38.39 24.72, 59.11 1.03 M7.94 59.9 C17.71 47.22, 27.71 35.84, 59.11 1.03 M12.27 61.02 C27.76 42.19, 42.49 24.54, 64.1 1.39 M12.27 61.02 C27.57 44.54, 41.95 26.93, 64.1 1.39 M17.26 61.38 C32.93 41.26, 48.31 26.53, 69.74 1 M17.26 61.38 C33.97 41.81, 52.58 20.23, 69.74 1 M22.24 61.74 C37.74 44.65, 50.66 28.04, 74.73 1.36 M22.24 61.74 C40.59 39.58, 58.54 19.94, 74.73 1.36 M27.89 61.34 C38.79 47.8, 47.02 35.92, 80.37 0.97 M27.89 61.34 C43.96 41.52, 60.03 23.32, 80.37 0.97 M32.87 61.7 C44.17 49.39, 58.36 34.43, 85.36 1.33 M32.87 61.7 C47.37 45.75, 61.51 29.97, 85.36 1.33 M37.86 62.06 C52.47 44.53, 65.63 28.99, 91 0.93 M37.86 62.06 C51.28 46.76, 63.99 32.7, 91 0.93 M43.5 61.67 C55.81 47.96, 66.99 36.9, 95.99 1.29 M43.5 61.67 C62.82 38.39, 83.52 16.56, 95.99 1.29 M48.49 62.03 C66.54 44.12, 81.52 21.94, 101.63 0.9 M48.49 62.03 C68.88 37.96, 88.63 16.34, 101.63 0.9 M54.13 61.63 C74.48 39.75, 90.14 17.34, 105.96 2.01 M54.13 61.63 C69.7 44.07, 84.27 26.81, 105.96 2.01 M59.12 61.99 C71.95 49.1, 82.02 37.24, 110.29 3.13 M59.12 61.99 C71.38 48.77, 83.12 35.69, 110.29 3.13 M64.76 61.6 C79.34 45.12, 97.21 27.52, 113.31 5.75 M64.76 61.6 C82.75 41.92, 99.85 20.51, 113.31 5.75 M69.75 61.96 C86.97 43.53, 103.74 24.49, 114.36 10.64 M69.75 61.96 C79.92 50.41, 88.89 38.73, 114.36 10.64 M75.39 61.56 C91.24 41.84, 106.01 25.17, 117.38 13.26 M75.39 61.56 C84.87 50.02, 94.36 39.7, 117.38 13.26 M80.38 61.92 C90.13 52.27, 96.69 43.97, 117.12 19.66 M80.38 61.92 C93.02 48.09, 104.36 35.91, 117.12 19.66 M86.02 61.53 C92.72 52.47, 101.17 47.8, 117.52 25.3 M86.02 61.53 C92.24 53.53, 99.36 46.15, 117.52 25.3 M91.01 61.89 C99.92 51.36, 109.38 40.99, 117.25 31.7 M91.01 61.89 C100.92 51.96, 110.28 40.43, 117.25 31.7 M96.65 61.5 C100.44 54.07, 108.85 47.21, 116.99 38.1 M96.65 61.5 C104.05 53.15, 113.01 44.37, 116.99 38.1 M101.64 61.86 C105.05 60.08, 105.72 53.4, 115.42 46.01 M101.64 61.86 C105.14 58.04, 109.1 53.71, 115.42 46.01" stroke="#fab005" stroke-width="0.5" fill="none"></path><path d="M15 0 M15 0 C35.71 0, 52.5 -0.93, 100 0 M15 0 C39.85 -0.23, 63.15 -0.56, 100 0 M100 0 C111.55 -0.72, 116.44 6.59, 115 15 M100 0 C110 -1.5, 113.96 6.58, 115 15 M115 15 C115.28 23.45, 113.52 28.49, 115 45 M115 15 C115.29 20.27, 115.79 28.23, 115 45 M115 45 C116.78 56.06, 109.72 60.02, 100 60 M115 45 C117.23 56.78, 109.1 59.01, 100 60 M100 60 C79.6 58.51, 60.39 61.46, 15 60 M100 60 C81.76 60.1, 61.98 60.5, 15 60 M15 60 C4.51 61.42, 1.25 56.91, 0 45 M15 60 C2.92 59.2, 0.32 54.5, 0 45 M0 45 C-1.56 33.95, -1.82 26.62, 0 15 M0 45 C0.76 39.06, -1.03 30.79, 0 15 M0 15 C1.06 5.08, 3.47 -0.51, 15 0 M0 15 C0.04 4.97, 6.31 1.96, 15 0" stroke="#000000" stroke-width="1" fill="none"></path></g><g transform="translate(324.03125 407.10546875) rotate(0 30.5 12.5)"><text x="30.5" y="18" font-family="Virgil, Segoe UI Emoji" font-size="20px" fill="#000000" text-anchor="middle" style="white-space: pre;" direction="ltr">Null-ls</text></g><g stroke-linecap="round" transform="translate(452.6796875 40.5625) rotate(0 109 30)"><path d="M3.99 3.47 C3.99 3.47, 3.99 3.47, 3.99 3.47 M3.99 3.47 C3.99 3.47, 3.99 3.47, 3.99 3.47 M1.11 12.89 C4.56 10.83, 4.09 10.24, 10.95 1.57 M1.11 12.89 C3.07 10.92, 6.22 6.55, 10.95 1.57 M1.5 18.53 C4.98 11.27, 15.3 8.04, 16.59 1.17 M1.5 18.53 C8.47 11.95, 13.59 4.5, 16.59 1.17 M1.24 24.93 C11.2 20.62, 12.92 12.83, 21.58 1.53 M1.24 24.93 C9.1 16.09, 13.56 9.92, 21.58 1.53 M1.63 30.57 C8.72 23.32, 19.17 9.41, 27.22 1.14 M1.63 30.57 C12.89 18.71, 22.16 7.41, 27.22 1.14 M1.37 36.97 C7.61 23.65, 18.88 13.59, 32.21 1.5 M1.37 36.97 C9.02 31.36, 15.77 22.52, 32.21 1.5 M1.11 43.37 C15.26 30.51, 27.93 14.6, 37.85 1.1 M1.11 43.37 C6.59 35.04, 14.77 25.43, 37.85 1.1 M1.51 49.01 C12.6 33.93, 25.69 15.55, 42.84 1.46 M1.51 49.01 C10.09 40.88, 16.24 31.73, 42.84 1.46 M3.21 53.14 C10.56 37.11, 28.11 27.84, 48.48 1.07 M3.21 53.14 C17.36 37.66, 30.29 18.92, 48.48 1.07 M4.92 57.28 C16.31 46.61, 31.84 29.73, 53.47 1.43 M4.92 57.28 C15.47 43.44, 29.82 29.28, 53.47 1.43 M8.59 59.15 C25.39 38.64, 42.01 17.53, 58.46 1.79 M8.59 59.15 C26.86 34.8, 48.19 11.89, 58.46 1.79 M13.58 59.51 C24.13 45.02, 37.21 35.07, 64.1 1.39 M13.58 59.51 C33.46 35.82, 53.02 15.91, 64.1 1.39 M19.22 59.11 C39.98 35.6, 52.55 14.84, 69.09 1.75 M19.22 59.11 C32.3 44.84, 43.95 30.95, 69.09 1.75 M24.21 59.47 C45.6 38.82, 58.34 16.23, 74.73 1.36 M24.21 59.47 C44.71 40.23, 62.22 20.49, 74.73 1.36 M29.85 59.08 C46.08 39.93, 64.01 17.28, 79.72 1.72 M29.85 59.08 C41.31 47.39, 50.36 32.02, 79.72 1.72 M34.84 59.44 C48.83 41.11, 66.51 24.76, 85.36 1.33 M34.84 59.44 C52.55 35.78, 71.99 13.48, 85.36 1.33 M40.49 59.04 C59.47 40.09, 67.94 28.94, 90.35 1.69 M40.49 59.04 C55.42 43.53, 70.89 26.97, 90.35 1.69 M45.47 59.4 C57.93 51.06, 63.96 39.21, 95.33 2.05 M45.47 59.4 C57.71 43.07, 70.5 26.43, 95.33 2.05 M51.12 59.01 C68.32 36.77, 84.58 15.97, 100.98 1.65 M51.12 59.01 C63.6 46.7, 76.65 33.27, 100.98 1.65 M56.1 59.37 C67.84 45.87, 81.46 30.86, 105.96 2.01 M56.1 59.37 C65.39 46.82, 78.4 35.16, 105.96 2.01 M61.09 59.73 C77.16 35.79, 97.2 13.65, 111.61 1.62 M61.09 59.73 C74.57 44.8, 88.74 29.57, 111.61 1.62 M66.73 59.33 C79.37 37.3, 98.52 16.63, 116.59 1.98 M66.73 59.33 C74.83 45.75, 88.73 37.43, 116.59 1.98 M71.72 59.69 C90.72 45.36, 102.74 21.87, 122.24 1.58 M71.72 59.69 C84.8 42.31, 103.73 24.92, 122.24 1.58 M77.36 59.3 C92.64 41.34, 103.5 32.5, 127.22 1.94 M77.36 59.3 C92.17 42.39, 104.87 26.6, 127.22 1.94 M82.35 59.66 C105.31 39.61, 125.05 15.67, 132.87 1.55 M82.35 59.66 C102.73 36.35, 120.8 14.3, 132.87 1.55 M87.99 59.27 C100.57 47.49, 114.86 32.07, 137.85 1.91 M87.99 59.27 C102.31 46.33, 112.15 34.14, 137.85 1.91 M92.98 59.63 C103.67 46.47, 115.96 32.08, 142.84 2.27 M92.98 59.63 C108.95 44.08, 122.93 26.59, 142.84 2.27 M97.97 59.99 C117.73 34.15, 134.28 12.6, 148.48 1.87 M97.97 59.99 C111.74 42.86, 128.75 24.09, 148.48 1.87 M103.61 59.59 C122.08 38.58, 136.1 23.13, 153.47 2.23 M103.61 59.59 C123.7 36.17, 141.75 14.56, 153.47 2.23 M108.6 59.95 C127.67 41.75, 145.11 16.25, 159.11 1.84 M108.6 59.95 C119.95 46.27, 134.48 28.74, 159.11 1.84 M114.24 59.56 C132.3 43.1, 139.17 27.5, 164.1 2.2 M114.24 59.56 C126.77 44.89, 141.89 29.23, 164.1 2.2 M119.23 59.92 C135.12 47.69, 141.82 29.46, 169.74 1.8 M119.23 59.92 C136.95 37.37, 155.5 15.17, 169.74 1.8 M124.87 59.52 C136.65 43.71, 144 34.46, 174.73 2.16 M124.87 59.52 C145.84 39.24, 166.15 13.97, 174.73 2.16 M129.86 59.88 C149.87 44.09, 161.34 21.43, 180.37 1.77 M129.86 59.88 C141.93 46.97, 153.8 31.11, 180.37 1.77 M135.5 59.49 C150.24 37.79, 172.5 24.31, 185.36 2.13 M135.5 59.49 C151.79 42.93, 166.82 26.59, 185.36 2.13 M140.49 59.85 C153.94 46.12, 157.56 38.13, 190.35 2.49 M140.49 59.85 C154.71 43.66, 171.4 23.85, 190.35 2.49 M145.47 60.21 C160.14 49.44, 171.17 31.59, 195.99 2.1 M145.47 60.21 C156.61 46.7, 165.48 35.16, 195.99 2.1 M151.12 59.81 C167.92 45.02, 175.16 26.15, 200.98 2.46 M151.12 59.81 C172.32 39.87, 190.92 14.35, 200.98 2.46 M156.1 60.17 C174.45 34.71, 193.36 18.68, 206.62 2.06 M156.1 60.17 C170.2 40.26, 187.49 20.95, 206.62 2.06 M161.75 59.78 C183.18 35.72, 200.27 18.13, 211.61 2.42 M161.75 59.78 C179.25 40.61, 193.18 20.67, 211.61 2.42 M166.73 60.14 C176.7 45.47, 191.95 30.86, 215.28 4.29 M166.73 60.14 C179.05 45.36, 194.59 29.92, 215.28 4.29 M172.38 59.74 C183.25 45.03, 195.3 31.03, 216.99 8.42 M172.38 59.74 C189.83 41.4, 204.31 25.91, 216.99 8.42 M177.36 60.1 C190.86 46.77, 198.48 38.03, 218.7 12.56 M177.36 60.1 C186.32 47.25, 197.28 34.99, 218.7 12.56 M183.01 59.71 C190.67 47.08, 202.99 39.43, 218.43 18.96 M183.01 59.71 C195.23 47.8, 205.09 35.22, 218.43 18.96 M187.99 60.07 C202.68 43.33, 207.6 35.27, 218.83 24.6 M187.99 60.07 C196.23 51.3, 207.59 38.15, 218.83 24.6 M192.98 60.43 C201.1 53.19, 211.49 37.11, 218.57 31 M192.98 60.43 C198.28 52.38, 204.77 46.94, 218.57 31 M198.62 60.04 C200.46 54.37, 204.09 45.78, 218.31 37.39 M198.62 60.04 C202.78 54.69, 208.18 49.09, 218.31 37.39 M203.61 60.4 C209.25 54.27, 209.26 53.88, 218.04 43.79 M203.61 60.4 C205.72 57.39, 211.24 54.2, 218.04 43.79 M209.91 59.25 C213.36 53.44, 216.15 49.55, 218.44 49.43 M209.91 59.25 C211.74 58.1, 214.09 55.03, 218.44 49.43" stroke="#fd7e14" stroke-width="0.5" fill="none"></path><path d="M15 0 M15 0 C51.92 -1.31, 90.92 1.76, 203 0 M15 0 C60.92 2.07, 108.57 2.76, 203 0 M203 0 C212.93 -0.67, 220.71 5.37, 218 15 M203 0 C212.57 2.3, 215.05 7.06, 218 15 M218 15 C217.11 25.93, 214.82 35.12, 218 45 M218 15 C218.76 23.07, 216.51 31.56, 218 45 M218 45 C215.08 54.74, 215.91 59.11, 203 60 M218 45 C219.86 55.29, 209.26 57.27, 203 60 M203 60 C126.28 62.66, 50.21 56.99, 15 60 M203 60 C151.13 62.82, 98.07 62.35, 15 60 M15 60 C5.23 62.54, -3.59 56.74, 0 45 M15 60 C5.17 62.16, -2.3 59.57, 0 45 M0 45 C3.43 36.1, -3.67 25.82, 0 15 M0 45 C0.17 38.05, -1.12 29.79, 0 15 M0 15 C-2.94 5.16, 2.87 2.35, 15 0 M0 15 C-2.79 2.52, 5.06 4.57, 15 0" stroke="#000000" stroke-width="1" fill="none"></path></g><g transform="translate(482.6796875 45.5625) rotate(0 79 25)"><text x="79" y="18" font-family="Virgil, Segoe UI Emoji" font-size="20px" fill="#000000" text-anchor="middle" style="white-space: pre;" direction="ltr">cmp</text><text x="79" y="43" font-family="Virgil, Segoe UI Emoji" font-size="20px" fill="#000000" text-anchor="middle" style="white-space: pre;" direction="ltr">completion plugin</text></g><g transform="translate(10 488.19921875) rotate(0 455 18)"><text x="0" y="14" font-family="Helvetica, Segoe UI Emoji" font-size="16px" fill="#000000" text-anchor="start" style="white-space: pre;" direction="ltr">- Neovim doesn't provide a way for non-LSP sources to hook into its LSP client</text><text x="0" y="32" font-family="Helvetica, Segoe UI Emoji" font-size="16px" fill="#000000" text-anchor="start" style="white-space: pre;" direction="ltr">- null-ls is an attempt to bridge that gap and simplify the process of creating, sharing, and setting up LSP sources using pure Lua</text></g><g transform="translate(721.91796875 10) rotate(0 85.5 38)"><text x="0" y="15" font-family="Cascadia, Segoe UI Emoji" font-size="16px" fill="#000000" text-anchor="start" style="white-space: pre;" direction="ltr">sources</text><text x="0" y="34" font-family="Cascadia, Segoe UI Emoji" font-size="16px" fill="#000000" text-anchor="start" style="white-space: pre;" direction="ltr">    - nvim_lsp</text><text x="0" y="53" font-family="Cascadia, Segoe UI Emoji" font-size="16px" fill="#000000" text-anchor="start" style="white-space: pre;" direction="ltr">    - vsnip</text><text x="0" y="72" font-family="Cascadia, Segoe UI Emoji" font-size="16px" fill="#000000" text-anchor="start" style="white-space: pre;" direction="ltr">    - copilot etc.</text></g><g stroke-linecap="round" transform="translate(263.484375 196.234375) rotate(0 115.736328125 42.5)"><path d="M3.19 8.07 C3.19 8.07, 3.19 8.07, 3.19 8.07 M3.19 8.07 C3.19 8.07, 3.19 8.07, 3.19 8.07 M0.96 16.73 C7.54 10.8, 9.2 10.56, 10.8 5.41 M0.96 16.73 C2.71 12.81, 5.65 11.09, 10.8 5.41 M0.7 23.13 C6.23 19.11, 13.42 7.94, 17.75 3.51 M0.7 23.13 C6.27 13.9, 13.43 5.85, 17.75 3.51 M1.09 28.77 C6.75 20.28, 17.37 12.8, 24.05 2.36 M1.09 28.77 C8.89 22.45, 13.14 11.03, 24.05 2.36 M0.83 35.17 C11.28 23.81, 19.78 14.39, 29.04 2.72 M0.83 35.17 C10.27 23.29, 16.81 13.75, 29.04 2.72 M1.22 40.81 C9.27 31.34, 11.34 25.94, 34.68 2.32 M1.22 40.81 C9.98 29.53, 17.84 22.89, 34.68 2.32 M0.96 47.21 C11.82 32.09, 21.12 25.76, 39.67 2.68 M0.96 47.21 C14.1 34.89, 27.88 20.45, 39.67 2.68 M0.7 53.61 C12.17 39.26, 19.53 30.78, 45.31 2.29 M0.7 53.61 C14.19 37.5, 25.46 23.58, 45.31 2.29 M1.1 59.25 C15.15 37.01, 37.47 14.15, 50.3 2.65 M1.1 59.25 C13.43 40.53, 30.24 25.54, 50.3 2.65 M0.83 65.65 C17.47 49.47, 31.47 30.65, 55.94 2.26 M0.83 65.65 C13.31 50.54, 26.84 35.1, 55.94 2.26 M1.89 70.54 C24 51.36, 41.14 26.06, 60.93 2.62 M1.89 70.54 C14.91 54.08, 31.81 37.43, 60.93 2.62 M3.59 74.67 C24.05 49.54, 53.48 21.98, 65.92 2.98 M3.59 74.67 C27.2 46.6, 48.55 21.73, 65.92 2.98 M5.3 78.81 C20.67 56.69, 33.24 40.27, 71.56 2.58 M5.3 78.81 C29.12 49.95, 53.86 21.3, 71.56 2.58 M8.32 81.43 C31.26 61.24, 48.83 34.44, 76.55 2.94 M8.32 81.43 C21.86 65.93, 37.18 51.38, 76.55 2.94 M11.99 83.3 C28.43 64.82, 51.19 38.61, 82.19 2.55 M11.99 83.3 C37.15 53.74, 63.93 22.93, 82.19 2.55 M15.01 85.92 C35.69 64.2, 50.98 40.97, 87.18 2.91 M15.01 85.92 C38.74 59.42, 64.09 34.56, 87.18 2.91 M20 86.29 C44.81 61.93, 64.89 35.9, 92.82 2.51 M20 86.29 C45.04 58.05, 68.48 28.93, 92.82 2.51 M25.64 85.89 C46.18 68.18, 60.87 45.27, 97.81 2.87 M25.64 85.89 C45.6 64.03, 67.11 38.18, 97.81 2.87 M30.63 86.25 C49.73 63.37, 77.56 34.63, 102.8 3.23 M30.63 86.25 C48.92 69.81, 63.52 50.32, 102.8 3.23 M35.62 86.61 C61.93 58.44, 89.39 28.52, 108.44 2.84 M35.62 86.61 C51.43 65.48, 70.41 46.96, 108.44 2.84 M41.26 86.22 C56.66 63.61, 75.18 49.72, 113.43 3.2 M41.26 86.22 C62.64 65.63, 80.58 43.08, 113.43 3.2 M46.25 86.58 C67.27 68.35, 82.01 51.16, 119.07 2.8 M46.25 86.58 C60.12 69.72, 77.87 53.75, 119.07 2.8 M51.89 86.18 C77.66 59.21, 98.9 30.58, 124.06 3.16 M51.89 86.18 C70.57 61.75, 92.64 35.93, 124.06 3.16 M56.88 86.54 C73.4 70.89, 91.52 50.11, 129.7 2.77 M56.88 86.54 C72.9 68.12, 89.46 50.65, 129.7 2.77 M62.52 86.15 C76.14 67.76, 95.12 49.24, 134.69 3.13 M62.52 86.15 C80.34 66.16, 97.5 47.24, 134.69 3.13 M67.51 86.51 C87.35 64.75, 109.27 41.7, 139.67 3.49 M67.51 86.51 C95.94 51.62, 126.32 19.49, 139.67 3.49 M72.49 86.87 C89.17 69.13, 106.82 45.48, 145.32 3.09 M72.49 86.87 C89.24 71.57, 106.63 53.42, 145.32 3.09 M78.14 86.47 C102.69 60.17, 125.93 32.87, 150.3 3.45 M78.14 86.47 C98.74 67.05, 116.2 45.75, 150.3 3.45 M83.12 86.83 C102.69 62.84, 131.97 31.83, 155.95 3.06 M83.12 86.83 C102.75 66.61, 122.18 41.96, 155.95 3.06 M88.77 86.44 C119.62 52.58, 149 19.47, 160.93 3.42 M88.77 86.44 C104.69 67.65, 122.7 45.18, 160.93 3.42 M93.75 86.8 C121.55 50.75, 152.84 18.82, 166.58 3.03 M93.75 86.8 C121.21 57.99, 151.05 24.07, 166.58 3.03 M99.4 86.4 C119.6 60.83, 142.73 33.48, 171.56 3.39 M99.4 86.4 C125.32 56.15, 150.94 26.46, 171.56 3.39 M104.38 86.76 C118.52 66.16, 140.26 44.89, 176.55 3.75 M104.38 86.76 C122.59 65.9, 141.65 44.37, 176.55 3.75 M109.37 87.12 C137.59 63.7, 156.65 28.56, 182.19 3.35 M109.37 87.12 C129.42 61.94, 151.31 35.75, 182.19 3.35 M115.01 86.73 C142.12 54.4, 164.36 29.17, 187.18 3.71 M115.01 86.73 C133.51 62.19, 156.74 38.37, 187.18 3.71 M120 87.09 C135.83 64.95, 159.74 45.66, 192.82 3.32 M120 87.09 C136.2 68.62, 150.91 51.36, 192.82 3.32 M125.64 86.69 C141 67.79, 159.43 53.77, 197.81 3.68 M125.64 86.69 C142.19 68.34, 153.89 52.03, 197.81 3.68 M130.63 87.05 C160.16 53.69, 181.04 24.02, 203.45 3.28 M130.63 87.05 C150.91 60.93, 172.36 37.58, 203.45 3.28 M136.27 86.66 C154.39 62.81, 178.27 41.11, 208.44 3.64 M136.27 86.66 C155.67 66.16, 176.07 44.3, 208.44 3.64 M141.26 87.02 C157.08 65.18, 175.87 52.13, 213.43 4 M141.26 87.02 C165.45 62.46, 185.51 38.02, 213.43 4 M146.25 87.38 C174.11 55.7, 196.58 26.37, 220.38 2.1 M146.25 87.38 C169.89 61.68, 192.18 32.91, 220.38 2.1 M151.89 86.99 C176.95 56.84, 208.82 20.23, 224.06 3.97 M151.89 86.99 C167.11 69.29, 180.95 53.68, 224.06 3.97 M156.88 87.35 C185.8 53.41, 207.87 26.99, 227.08 6.59 M156.88 87.35 C179.94 63.89, 200.62 36.26, 227.08 6.59 M162.52 86.95 C185.14 57.52, 212.76 27.93, 229.44 9.97 M162.52 86.95 C181.4 65.87, 200.54 45.45, 229.44 9.97 M167.51 87.31 C194.27 57.59, 216.14 30.04, 231.15 14.1 M167.51 87.31 C181.13 71.83, 193.8 55.82, 231.15 14.1 M173.15 86.92 C194.29 67.07, 211.26 39.31, 232.85 18.24 M173.15 86.92 C188.96 67.51, 208.69 46.23, 232.85 18.24 M178.14 87.28 C192.89 68.33, 212.03 55.8, 233.25 23.88 M178.14 87.28 C190.67 74.48, 202.83 59.96, 233.25 23.88 M183.12 87.64 C192.41 75.07, 208.88 60.69, 232.99 30.28 M183.12 87.64 C195.4 70.57, 207.85 59.26, 232.99 30.28 M188.77 87.24 C201.76 72.08, 217.54 55.82, 232.72 36.68 M188.77 87.24 C199.16 74.85, 210.06 64.84, 232.72 36.68 M193.75 87.6 C202.41 78.11, 211.99 64.85, 232.46 43.07 M193.75 87.6 C202.45 75.5, 214.69 64.52, 232.46 43.07 M199.4 87.21 C214.99 72.1, 222.27 63.65, 232.86 48.72 M199.4 87.21 C210.51 73.54, 223.46 57.81, 232.86 48.72 M204.38 87.57 C209.11 77.17, 220.54 71.19, 232.6 55.12 M204.38 87.57 C216.54 73.39, 226.45 61.71, 232.6 55.12 M211.34 85.66 C218.64 82.21, 226.64 72.69, 232.33 61.51 M211.34 85.66 C217.97 77.3, 223.96 70.81, 232.33 61.51 M217.64 84.51 C222.19 76.38, 223.63 73.87, 232.07 67.91 M217.64 84.51 C220.86 78.57, 223.1 77.61, 232.07 67.91" stroke="#228be6" stroke-width="0.5" fill="none"></path><path d="M21.25 0 M21.25 0 C74.1 4.74, 124.38 5.51, 210.22 0 M21.25 0 C89.23 1.74, 159.58 2.73, 210.22 0 M210.22 0 C223.5 -2.93, 231.61 3.31, 231.47 21.25 M210.22 0 C219.96 3.16, 230.69 9.98, 231.47 21.25 M231.47 21.25 C234.58 40.25, 234.52 52.79, 231.47 63.75 M231.47 21.25 C233.74 34.85, 230.99 52.48, 231.47 63.75 M231.47 63.75 C230.19 77.88, 221.37 85.12, 210.22 85 M231.47 63.75 C232.2 75.72, 220.29 86.81, 210.22 85 M210.22 85 C166.63 87.3, 121.98 83.77, 21.25 85 M210.22 85 C139.19 88.87, 70.49 88.35, 21.25 85 M21.25 85 C6.37 84.8, 1.69 78.08, 0 63.75 M21.25 85 C3.74 84.69, -3.94 75.88, 0 63.75 M0 63.75 C0.3 46.27, 1.97 35.12, 0 21.25 M0 63.75 C-0.41 53.61, -1.86 40.01, 0 21.25 M0 21.25 C-0.64 7.31, 9.32 3.98, 21.25 0 M0 21.25 C-2.14 11.67, 7.39 2.65, 21.25 0" stroke="#000000" stroke-width="1" fill="none"></path></g><g transform="translate(334.720703125 201.234375) rotate(0 44.5 25)"><text x="44.5" y="18" font-family="Virgil, Segoe UI Emoji" font-size="20px" fill="#000000" text-anchor="middle" style="white-space: pre;" direction="ltr">nvim_lsp</text><text x="44.5" y="43" font-family="Virgil, Segoe UI Emoji" font-size="20px" fill="#000000" text-anchor="middle" style="white-space: pre;" direction="ltr">lsp client</text></g><g stroke-linecap="round"><g transform="translate(347.47750284750055 371.75390625) rotate(0 4.742358081425266 -42.130454800031146)"><path d="M-0.96 0.83 C-1.1 -7.61, -2.2 -37.49, -0.23 -51.51 C1.74 -65.53, 9.28 -77.91, 10.88 -83.29 M0.74 0.22 C0.47 -8.5, -2.27 -39.15, -0.67 -53.37 C0.93 -67.58, 8.73 -79.64, 10.35 -85.09" stroke="#000000" stroke-width="1" fill="none"></path></g><g transform="translate(347.47750284750055 371.75390625) rotate(0 4.742358081425266 -42.130454800031146)"><path d="M10.63 -66.56 C10.63 -73.33, 11.69 -81.54, 11.13 -86.13 M10.1 -67.63 C9.97 -72.29, 10.35 -76.76, 10.09 -84.91" stroke="#000000" stroke-width="1" fill="none"></path></g><g transform="translate(347.47750284750055 371.75390625) rotate(0 4.742358081425266 -42.130454800031146)"><path d="M-0.17 -71.16 C3.59 -76.22, 8.46 -82.82, 11.13 -86.13 M-0.7 -72.22 C2.03 -75.76, 5.28 -79.01, 10.09 -84.91" stroke="#000000" stroke-width="1" fill="none"></path></g></g><g stroke-linecap="round"><g transform="translate(409.3564312301894 190.890625) rotate(0 49.399567425116516 -39.953401293605566)"><path d="M0.51 0.45 C10.21 -5.56, 42.49 -21.66, 58.98 -35.13 C75.47 -48.6, 92.88 -72.93, 99.47 -80.36 M-0.68 -0.36 C8.88 -6.35, 41.96 -20.98, 58.58 -34.16 C75.19 -47.34, 92.33 -72.01, 98.99 -79.42" stroke="#000000" stroke-width="1" fill="none"></path></g><g transform="translate(409.3564312301894 190.890625) rotate(0 49.399567425116516 -39.953401293605566)"><path d="M90.01 -49.32 C90.83 -60.66, 95.01 -72.73, 98.87 -77.68 M89.52 -50.57 C93.18 -62.07, 96.7 -72.47, 99.96 -79.39" stroke="#000000" stroke-width="1" fill="none"></path></g><g transform="translate(409.3564312301894 190.890625) rotate(0 49.399567425116516 -39.953401293605566)"><path d="M74.05 -62.22 C80.86 -68.86, 90.93 -76.17, 98.87 -77.68 M73.55 -63.46 C83.28 -70.16, 92.81 -75.7, 99.96 -79.39" stroke="#000000" stroke-width="1" fill="none"></path></g></g><g stroke-linecap="round" transform="translate(607.609375 325.56640625) rotate(0 84.712890625 36.962890625)"><path d="M2.43 7.41 C2.43 7.41, 2.43 7.41, 2.43 7.41 M2.43 7.41 C2.43 7.41, 2.43 7.41, 2.43 7.41 M1.51 14.57 C4.25 11.8, 8.82 6.62, 10.04 4.75 M1.51 14.57 C4.07 11.43, 6.07 9.24, 10.04 4.75 M1.25 20.96 C5.72 15.29, 12.07 10.97, 18.97 0.59 M1.25 20.96 C5.81 15.39, 11.43 8.96, 18.97 0.59 M0.99 27.36 C7.13 20.82, 16.15 12.24, 24.61 0.19 M0.99 27.36 C9.59 18.44, 17.54 8.49, 24.61 0.19 M1.38 33 C10.2 24.08, 18.92 16.35, 29.6 0.55 M1.38 33 C12.61 21.61, 22.96 8.41, 29.6 0.55 M1.12 39.4 C12.53 29.35, 19.89 17.43, 35.24 0.16 M1.12 39.4 C13.24 24.6, 27.1 10.62, 35.24 0.16 M1.52 45.04 C16.2 26.96, 33.76 10.88, 40.23 0.52 M1.52 45.04 C12.81 31.71, 26.25 17.38, 40.23 0.52 M1.26 51.44 C12.61 38.03, 23.44 28.27, 45.87 0.12 M1.26 51.44 C10.74 39.4, 20.57 29.69, 45.87 0.12 M1 57.84 C15.22 44.77, 23.98 30, 50.86 0.48 M1 57.84 C17.53 40.27, 34.77 20.8, 50.86 0.48 M2.7 61.97 C18.53 43.26, 34.55 24.15, 55.84 0.84 M2.7 61.97 C14.66 47.8, 28.16 32.79, 55.84 0.84 M3.1 67.62 C21.85 45.64, 43.38 24.19, 61.49 0.45 M3.1 67.62 C16.69 53.71, 29.68 39.22, 61.49 0.45 M6.77 69.49 C24.73 49.62, 45.66 25.07, 66.47 0.81 M6.77 69.49 C19.26 55.13, 33.38 39.01, 66.47 0.81 M9.79 72.11 C30.5 48.97, 51.77 22.31, 72.12 0.41 M9.79 72.11 C30.75 47.73, 51.08 25.65, 72.12 0.41 M12.81 74.74 C27.32 58.82, 43.66 39, 77.1 0.77 M12.81 74.74 C38.77 45.33, 63.45 16.89, 77.1 0.77 M18.45 74.34 C41.24 49.89, 61.62 22.82, 82.75 0.38 M18.45 74.34 C39.73 48.84, 59.38 24.64, 82.75 0.38 M24.1 73.95 C45.87 45.39, 72.03 18.71, 87.73 0.74 M24.1 73.95 C39.59 56.19, 56.45 37.4, 87.73 0.74 M29.08 74.31 C44.2 56.91, 61.16 41.7, 93.38 0.34 M29.08 74.31 C46.52 54.79, 61.83 37.14, 93.38 0.34 M34.73 73.91 C48.71 57.4, 63.41 40.36, 98.36 0.7 M34.73 73.91 C54.92 50.73, 75.4 28.18, 98.36 0.7 M39.71 74.27 C59.66 52.16, 81.39 27.94, 104.01 0.31 M39.71 74.27 C57.86 54.36, 75.26 35.79, 104.01 0.31 M45.36 73.88 C64.02 49.66, 83.94 28.85, 108.99 0.67 M45.36 73.88 C66.48 48.68, 89.02 23.92, 108.99 0.67 M50.34 74.24 C67.93 55.83, 84.29 35.52, 114.64 0.28 M50.34 74.24 C69 51.4, 89.07 28.78, 114.64 0.28 M55.99 73.84 C77.57 49.15, 103.1 22.13, 119.62 0.64 M55.99 73.84 C80.98 44.25, 103.99 16.38, 119.62 0.64 M60.97 74.2 C85.66 45.59, 108.95 17.29, 125.27 0.24 M60.97 74.2 C74.77 56.02, 91.84 39.48, 125.27 0.24 M66.62 73.81 C86.97 53.51, 102.83 31.22, 130.25 0.6 M66.62 73.81 C83.73 52.19, 102.86 32.12, 130.25 0.6 M71.6 74.17 C96.23 46.53, 120.83 19.65, 135.9 0.21 M71.6 74.17 C89.84 52.69, 107.27 32.97, 135.9 0.21 M77.25 73.77 C94.5 56.08, 110.98 34.65, 140.88 0.57 M77.25 73.77 C102.15 45.01, 125.72 17.68, 140.88 0.57 M82.23 74.13 C103.54 48.05, 125.81 21.49, 146.53 0.17 M82.23 74.13 C106.11 45.62, 131.05 17.79, 146.53 0.17 M87.88 73.74 C108.09 50.03, 128.93 23.92, 151.51 0.53 M87.88 73.74 C100.62 58.22, 114.69 42.8, 151.51 0.53 M92.86 74.1 C105.26 58.93, 120.76 45.82, 156.5 0.89 M92.86 74.1 C110.49 55.12, 128.4 34.52, 156.5 0.89 M97.85 74.46 C118.52 49.57, 139.56 27.73, 160.18 2.76 M97.85 74.46 C111.09 60.67, 124.07 45.83, 160.18 2.76 M103.49 74.06 C120.6 54.12, 135.53 38.54, 163.85 4.63 M103.49 74.06 C115.53 59.76, 128.26 46.63, 163.85 4.63 M108.48 74.42 C126.01 54.11, 144.8 35.47, 167.53 6.5 M108.48 74.42 C119.86 62.04, 132.47 47.28, 167.53 6.5 M114.12 74.03 C127.6 60, 139.58 45.79, 169.23 10.63 M114.12 74.03 C133.66 50.59, 155.72 26.51, 169.23 10.63 M119.11 74.39 C131.63 57.65, 147.03 44.51, 170.28 15.52 M119.11 74.39 C134.25 54.76, 150.46 37.43, 170.28 15.52 M124.75 74 C133.88 63.19, 146.59 51.64, 170.68 21.17 M124.75 74 C140.25 54.82, 157.25 38.12, 170.68 21.17 M129.74 74.36 C143.34 59.64, 155.67 48.53, 170.42 27.56 M129.74 74.36 C142.05 61.45, 152.09 46.36, 170.42 27.56 M135.38 73.96 C146.56 59.01, 161.13 41.79, 170.81 33.21 M135.38 73.96 C142.63 66.59, 149.08 56.96, 170.81 33.21 M140.37 74.32 C146.48 68.4, 154.64 58.93, 170.55 39.6 M140.37 74.32 C148.95 63.11, 158.43 51.83, 170.55 39.6 M146.01 73.93 C155.93 64.43, 165.51 51.38, 170.94 45.25 M146.01 73.93 C156.07 62.2, 165.57 51.71, 170.94 45.25 M151 74.29 C155.51 68.86, 160.64 61.39, 170.68 51.65 M151 74.29 C156.28 69.04, 161.5 62.95, 170.68 51.65 M157.96 72.38 C161.87 64.37, 170.31 62.37, 171.08 57.29 M157.96 72.38 C162.36 67.19, 165.8 63.38, 171.08 57.29" stroke="#40c057" stroke-width="0.5" fill="none"></path><path d="M18.48 0 M18.48 0 C63.48 0.38, 106.42 1.26, 150.94 0 M18.48 0 C69.06 -0.44, 119.65 0.58, 150.94 0 M150.94 0 C163.91 0.33, 168.55 4.63, 169.43 18.48 M150.94 0 C163.24 1.06, 170.62 6.47, 169.43 18.48 M169.43 18.48 C168.42 32.83, 169.72 46.57, 169.43 55.44 M169.43 18.48 C170.75 27.31, 170.68 36.05, 169.43 55.44 M169.43 55.44 C170.35 67.27, 162.62 73.08, 150.94 73.93 M169.43 55.44 C171.26 66.88, 163.91 73.27, 150.94 73.93 M150.94 73.93 C100.54 76.8, 51.95 74.93, 18.48 73.93 M150.94 73.93 C118.51 74.82, 85.28 74.02, 18.48 73.93 M18.48 73.93 C7.3 75.23, 0.04 69.13, 0 55.44 M18.48 73.93 C3.95 71.81, 0.06 67.38, 0 55.44 M0 55.44 C0.94 41.6, -0.15 25.12, 0 18.48 M0 55.44 C-0.1 42.07, -0.71 27.21, 0 18.48 M0 18.48 C1.25 5.15, 7.79 -1.41, 18.48 0 M0 18.48 C-0.1 5.97, 8.14 0.09, 18.48 0" stroke="#000000" stroke-width="1" fill="none"></path></g><g transform="translate(625.822265625 350.029296875) rotate(0 66.5 12.5)"><text x="66.5" y="18" font-family="Virgil, Segoe UI Emoji" font-size="20px" fill="#000000" text-anchor="middle" style="white-space: pre;" direction="ltr">Regular LSPs</text></g><g stroke-linecap="round"><g transform="translate(682.87890625 319.55859375) rotate(0 -90.11686239906697 -16.146131623218963)"><path d="M0.05 -0.98 C-23.11 -3.46, -107.85 -9.64, -137.83 -14.74 C-167.81 -19.85, -172.67 -28.5, -179.82 -31.59 M-1.38 1.12 C-24.72 -1.25, -108.51 -7.98, -138.33 -13.74 C-168.14 -19.49, -173.22 -30.27, -180.28 -33.41" stroke="#000000" stroke-width="1" fill="none"></path></g><g transform="translate(682.87890625 319.55859375) rotate(0 -90.11686239906697 -16.146131623218963)"><path d="M-159.79 -26.13 C-168.55 -28.89, -173.91 -32.77, -181.48 -32.18 M-157.63 -26.73 C-166.56 -29.32, -172.4 -31.45, -181.08 -32.89" stroke="#000000" stroke-width="1" fill="none"></path></g><g transform="translate(682.87890625 319.55859375) rotate(0 -90.11686239906697 -16.146131623218963)"><path d="M-168.72 -13.27 C-173.99 -21.09, -175.83 -30.03, -181.48 -32.18 M-166.56 -13.88 C-172.52 -20.78, -175.34 -27.27, -181.08 -32.89" stroke="#000000" stroke-width="1" fill="none"></path></g></g></svg>