<svg version="1.1" xmlns="http://www.w3.org/2000/svg" viewBox="0 0 930 534.19921875" width="930" height="534.19921875">
  <!-- svg-source:excalidraw -->
  
  <defs>
    <style>
      @font-face {
        font-family: "Virgil";
        src: url("https://excalidraw.com/Virgil.woff2");
      }
      @font-face {
        font-family: "Cascadia";
        src: url("https://excalidraw.com/Cascadia.woff2");
      }
    </style>
  </defs>
  <rect x="0" y="0" width="930" height="534.19921875" fill="#ffffff"></rect><g stroke-linecap="round" transform="translate(297.03125 383.35546875) rotate(0 57.5 30)"><path d="M3.99 3.47 C3.99 3.47, 3.99 3.47, 3.99 3.47 M3.99 3.47 C3.99 3.47, 3.99 3.47, 3.99 3.47 M1.11 12.89 C3.4 8.8, 6.11 6.64, 10.29 2.32 M1.11 12.89 C3.52 9.61, 6.38 5.85, 10.29 2.32 M1.5 18.53 C4.01 14.49, 9.58 10.64, 16.59 1.17 M1.5 18.53 C6.89 11.6, 12.02 5.98, 16.59 1.17 M1.24 24.93 C8.57 19.58, 14.22 13.7, 21.58 1.53 M1.24 24.93 C6.54 18.28, 14.52 10.97, 21.58 1.53 M1.63 30.57 C8.45 24.19, 13.19 18.55, 27.22 1.14 M1.63 30.57 C9.56 19.16, 19.29 10.12, 27.22 1.14 M1.37 36.97 C11.87 27.18, 20.52 17.5, 32.21 1.5 M1.37 36.97 C11.69 23.89, 22.01 12.75, 32.21 1.5 M1.11 43.37 C9.33 32.15, 18.86 22.75, 37.85 1.1 M1.11 43.37 C14.8 26.91, 28.29 12.3, 37.85 1.1 M1.51 49.01 C12.17 36.78, 20.37 26.55, 42.84 1.46 M1.51 49.01 C10.86 37.85, 20.99 25.61, 42.84 1.46 M2.56 53.9 C19.25 32.27, 37.11 13.59, 48.48 1.07 M2.56 53.9 C16.7 36.54, 32.34 20.16, 48.48 1.07 M4.92 57.28 C23.32 35.07, 43.81 12.47, 53.47 1.43 M4.92 57.28 C19.25 41.05, 33.11 25.05, 53.47 1.43 M7.94 59.9 C22.8 42.73, 38.39 24.72, 59.11 1.03 M7.94 59.9 C17.71 47.22, 27.71 35.84, 59.11 1.03 M12.27 61.02 C27.76 42.19, 42.49 24.54, 64.1 1.39 M12.27 61.02 C27.57 44.54, 41.95 26.93, 64.1 1.39 M17.26 61.38 C32.93 41.26, 48.31 26.53, 69.74 1 M17.26 61.38 C33.97 41.81, 52.58 20.23, 69.74 1 M22.24 61.74 C37.74 44.65, 50.66 28.04, 74.73 1.36 M22.24 61.74 C40.59 39.58, 58.54 19.94, 74.73 1.36 M27.89 61.34 C38.79 47.8, 47.02 35.92, 80.37 0.97 M27.89 61.34 C43.96 41.52, 60.03 23.32, 80.37 0.97 M32.87 61.7 C44.17 49.39, 58.36 34.43, 85.36 1.33 M32.87 61.7 C47.37 45.75, 61.51 29.97, 85.36 1.33 M37.86 62.06 C52.47 44.53, 65.63 28.99, 91 0.93 M37.86 62.06 C51.28 46.76, 63.99 32.7, 91 0.93 M43.5 61.67 C55.81 47.96, 66.99 36.9, 95.99 1.29 M43.5 61.67 C62.82 38.39, 83.52 16.56, 95.99 1.29 M48.49 62.03 C66.54 44.12, 81.52 21.94, 101.63 0.9 M48.49 62.03 C68.88 37.96, 88.63 16.34, 101.63 0.9 M54.13 61.63 C74.48 39.75, 90.14 17.34, 105.96 2.01 M54.13 61.63 C69.7 44.07, 84.27 26.81, 105.96 2.01 M59.12 61.99 C71.95 49.1, 82.02 37.24, 110.29 3.13 M59.12 61.99 C71.38 48.77, 83.12 35.69, 110.29 3.13 M64.76 61.6 C79.34 45.12, 97.21 27.52, 113.31 5.75 M64.76 61.6 C82.75 41.92, 99.85 20.51, 113.31 5.75 M69.75 61.96 C86.97 43.53, 103.74 24.49, 114.36 10.64 M69.75 61.96 C79.92 50.41, 88.89 38.73, 114.36 10.64 M75.39 61.56 C91.24 41.84, 106.01 25.17, 117.38 13.26 M75.39 61.56 C84.87 50.02, 94.36 39.7, 117.38 13.26 M80.38 61.92 C90.13 52.27, 96.69 43.97, 117.12 19.66 M80.38 61.92 C93.02 48.09, 104.36 35.91, 117.12 19.66 M86.02 61.53 C92.72 52.47, 101.17 47.8, 117.52 25.3 M86.02 61.53 C92.24 53.53, 99.36 46.15, 117.52 25.3 M91.01 61.89 C99.92 51.36, 109.38 40.99, 117.25 31.7 M91.01 61.89 C100.92 51.96, 110.28 40.43, 117.25 31.7 M96.65 61.5 C100.44 54.07, 108.85 47.21, 116.99 38.1 M96.65 61.5 C104.05 53.15, 113.01 44.37, 116.99 38.1 M101.64 61.86 C105.05 60.08, 105.72 53.4, 115.42 46.01 M101.64 61.86 C105.14 58.04, 109.1 53.71, 115.42 46.01" stroke="#fab005" stroke-width="0.5" fill="none"></path><path d="M15 0 M15 0 C35.71 0, 52.5 -0.93, 100 0 M15 0 C39.85 -0.23, 63.15 -0.56, 100 0 M100 0 C111.55 -0.72, 116.44 6.59, 115 15 M100 0 C110 -1.5, 113.96 6.58, 115 15 M115 15 C115.28 23.45, 113.52 28.49, 115 45 M115 15 C115.29 20.27, 115.79 28.23, 115 45 M115 45 C116.78 56.06, 109.72 60.02, 100 60 M115 45 C117.23 56.78, 109.1 59.01, 100 60 M100 60 C79.6 58.51, 60.39 61.46, 15 60 M100 60 C81.76 60.1, 61.98 60.5, 15 60 M15 60 C4.51 61.42, 1.25 56.91, 0 45 M15 60 C2.92 59.2, 0.32 54.5, 0 45 M0 45 C-1.56 33.95, -1.82 26.62, 0 15 M0 45 C0.76 39.06, -1.03 30.79, 0 15 M0 15 C1.06 5.08, 3.47 -0.51, 15 0 M0 15 C0.04 4.97, 6.31 1.96, 15 0" stroke="#000000" stroke-width="1" fill="none"></path></g><g transform="translate(324.03125 407.10546875) rotate(0 30.5 12.5)"><text x="30.5" y="18" font-family="Virgil, Segoe UI Emoji" font-size="20px" fill="#000000" text-anchor="middle" style="white-space: pre;" direction="ltr">Null-ls</text></g><g stroke-linecap="round" transform="translate(452.6796875 40.5625) rotate(0 109 30)"><path d="M3.99 3.47 C3.99 3.47, 3.99 3.47, 3.99 3.47 M3.99 3.47 C3.99 3.47, 3.99 3.47, 3.99 3.47 M1.11 12.89 C4.56 10.83, 4.09 10.24, 10.95 1.57 M1.11 12.89 C3.07 10.92, 6.22 6.55, 10.95 1.57 M1.5 18.53 C4.98 11.27, 15.3 8.04, 16.59 1.17 M1.5 18.53 C8.47 11.95, 13.59 4.5, 16.59 1.17 M1.24 24.93 C11.2 20.62, 12.92 12.83, 21.58 1.53 M1.24 24.93 C9.1 16.09, 13.56 9.92, 21.58 1.53 M1.63 30.57 C8.72 23.32, 19.17 9.41, 27.22 1.14 M1.63 30.57 C12.89 18.71, 22.16 7.41, 27.22 1.14 M1.37 36.97 C7.61 23.65, 18.88 13.59, 32.21 1.5 M1.37 36.97 C9.02 31.36, 15.77 22.52, 32.21 1.5 M1.11 43.37 C15.26 30.51, 27.93 14.6, 37.85 1.1 M1.11 43.37 C6.59 35.04, 14.77 25.43, 37.85 1.1 M1.51 49.01 C12.6 33.93, 25.69 15.55, 42.84 1.46 M1.51 49.01 C10.09 40.88, 16.24 31.73, 42.84 1.46 M3.21 53.14 C10.56 37.11, 28.11 27.84, 48.48 1.07 M3.21 53.14 C17.36 37.66, 30.29 18.92, 48.48 1.07 M4.92 57.28 C16.31 46.61, 31.84 29.73, 53.47 1.43 M4.92 57.28 C15.47 43.44, 29.82 29.28, 53.47 1.43 M8.59 59.15 C25.39 38.64, 42.01 17.53, 58.46 1.79 M8.59 59.15 C26.86 34.8, 48.19 11.89, 58.46 1.79 M13.58 59.51 C24.13 45.02, 37.21 35.07, 64.1 1.39 M13.58 59.51 C33.46 35.82, 53.02 15.91, 64.1 1.39 M19.22 59.11 C39.98 35.6, 52.55 14.84, 69.09 1.75 M19.22 59.11 C32.3 44.84, 43.95 30.95, 69.09 1.75 M24.21 59.47 C45.6 38.82, 58.34 16.23, 74.73 1.36 M24.21 59.47 C44.71 40.23, 62.22 20.49, 74.73 1.36 M29.85 59.08 C46.08 39.93, 64.01 17.28, 79.72 1.72 M29.85 59.08 C41.31 47.39, 50.36 32.02, 79.72 1.72 M34.84 59.44 C48.83 41.11, 66.51 24.76, 85.36 1.33 M34.84 59.44 C52.55 35.78, 71.99 13.48, 85.36 1.33 M40.49 59.04 C59.47 40.09, 67.94 28.94, 90.35 1.69 M40.49 59.04 C55.42 43.53, 70.89 26.97, 90.35 1.69 M45.47 59.4 C57.93 51.06, 63.96 39.21, 95.33 2.05 M45.47 59.4 C57.71 43.07, 70.5 26.43, 95.33 2.05 M51.12 59.01 C68.32 36.77, 84.58 15.97, 100.98 1.65 M51.12 59.01 C63.6 46.7, 76.65 33.27, 100.98 1.65 M56.1 59.37 C67.84 45.87, 81.46 30.86, 105.96 2.01 M56.1 59.37 C65.39 46.82, 78.4 35.16, 105.96 2.01 M61.09 59.73 C77.16 35.79, 97.2 13.65, 111.61 1.62 M61.09 59.73 C74.57 44.8, 88.74 29.57, 111.61 1.62 M66.73 59.33 C79.37 37.3, 98.52 16.63, 116.59 1.98 M66.73 59.33 C74.83 45.75, 88.73 37.43, 116.59 1.98 M71.72 59.69 C90.72 45.36, 102.74 21.87, 122.24 1.58 M71.72 59.69 C84.8 42.31, 103.73 24.92, 122.24 1.58 M77.36 59.3 C92.64 41.34, 103.5 32.5, 127.22 1.94 M77.36 59.3 C92.17 42.39, 104.87 26.6, 127.22 1.94 M82.35 59.66 C105.31 39.61, 125.05 15.67, 132.87 1.55 M82.35 59.66 C102.73 36.35, 120.8 14.3, 132.87 1.55 M87.99 59.27 C100.57 47.49, 114.86 32.07, 137.85 1.91 M87.99 59.27 C102.31 46.33, 112.15 34.14, 137.85 1.91 M92.98 59.63 C103.67 46.47, 115.96 32.08, 142.84 2.27 M92.98 59.63 C108.95 44.08, 122.93 26.59, 142.84 2.27 M97.97 59.99 C117.73 34.15, 134.28 12.6, 148.48 1.87 M97.97 59.99 C111.74 42.86, 128.75 24.09, 148.48 1.87 M103.61 59.59 C122.08 38.58, 136.1 23.13, 153.47 2.23 M103.61 59.59 C123.7 36.17, 141.75 14.56, 153.47 2.23 M108.6 59.95 C127.67 41.75, 145.11 16.25, 159.11 1.84 M108.6 59.95 C119.95 46.27, 134.48 28.74, 159.11 1.84 M114.24 59.56 C132.3 43.1, 139.17 27.5, 164.1 2.2 M114.24 59.56 C126.77 44.89, 141.89 29.23, 164.1 2.2 M119.23 59.92 C135.12 47.69, 141.82 29.46, 169.74 1.8 M119.23 59.92 C136.95 37.37, 155.5 15.17, 169.74 1.8 M124.87 59.52 C136.65 43.71, 144 34.46, 174.73 2.16 M124.87 59.52 C145.84 39.24, 166.15 13.97, 174.73 2.16 M129.86 59.88 C149.87 44.09, 161.34 21.43, 180.37 1.77 M129.86 59.88 C141.93 46.97, 153.8 31.11, 180.37 1.77 M135.5 59.49 C150.24 37.79, 172.5 24.31, 185.36 2.13 M135.5 59.49 C151.79 42.93, 166.82 26.59, 185.36 2.13 M140.49 59.85 C153.94 46.12, 157.56 38.13, 190.35 2.49 M140.49 59.85 C154.71 43.66, 171.4 23.85, 190.35 2.49 M145.47 60.21 C160.14 49.44, 171.17 31.59, 195.99 2.1 M145.47 60.21 C156.61 46.7, 165.48 35.16, 195.99 2.1 M151.12 59.81 C167.92 45.02, 175.16 26.15, 200.98 2.46 M151.12 59.81 C172.32 39.87, 190.92 14.35, 200.98 2.46 M156.1 60.17 C174.45 34.71, 193.36 18.68, 206.62 2.06 M156.1 60.17 C170.2 40.26, 187.49 20.95, 206.62 2.06 M161.75 59.78 C183.18 35.72, 200.27 18.13, 211.61 2.42 M161.75 59.78 C179.25 40.61, 193.18 20.67, 211.61 2.42 M166.73 60.14 C176.7 45.47, 191.95 30.86, 215.28 4.29 M166.73 60.14 C179.05 45.36, 194.59 29.92, 215.28 4.29 M172.38 59.74 C183.25 45.03, 195.3 31.03, 216.99 8.42 M172.38 59.74 C189.83 41.4, 204.31 25.91, 216.99 8.42 M177.36 60.1 C190.86 46.77, 198.48 38.03, 218.7 12.56 M177.36 60.1 C186.32 47.25, 197.28 34.99, 218.7 12.56 M183.01 59.71 C190.67 47.08, 202.99 39.43, 218.43 18.96 M183.01 59.71 C195.23 47.8, 205.09 35.22, 218.43 18.96 M187.99 60.07 C202.68 43.33, 207.6 35.27, 218.83 24.6 M187.99 60.07 C196.23 51.3, 207.59 38.15, 218.83 24.6 M192.98 60.43 C201.1 53.19, 211.49 37.11, 218.57 31 M192.98 60.43 C198.28 52.38, 204.77 46.94, 218.57 31 M198.62 60.04 C200.46 54.37, 204.09 45.78, 218.31 37.39 M198.62 60.04 C202.78 54.69, 208.18 49.09, 218.31 37.39 M203.61 60.4 C209.25 54.27, 209.26 53.88, 218.04 43.79 M203.61 60.4 C205.72 57.39, 211.24 54.2, 218.04 43.79 M209.91 59.25 C213.36 53.44, 216.15 49.55, 218.44 49.43 M209.91 59.25 C211.74 58.1, 214.09 55.03, 218.44 49.43" stroke="#fd7e14" stroke-width="0.5" fill="none"></path><path d="M15 0 M15 0 C51.92 -1.31, 90.92 1.76, 203 0 M15 0 C60.92 2.07, 108.57 2.76, 203 0 M203 0 C212.93 -0.67, 220.71 5.37, 218 15 M203 0 C212.57 2.3, 215.05 7.06, 218 15 M218 15 C217.11 25.93, 214.82 35.12, 218 45 M218 15 C218.76 23.07, 216.51 31.56, 218 45 M218 45 C215.08 54.74, 215.91 59.11, 203 60 M218 45 C219.86 55.29, 209.26 57.27, 203 60 M203 60 C126.28 62.66, 50.21 56.99, 15 60 M203 60 C151.13 62.82, 98.07 62.35, 15 60 M15 60 C5.23 62.54, -3.59 56.74, 0 45 M15 60 C5.17 62.16, -2.3 59.57, 0 45 M0 45 C3.43 36.1, -3.67 25.82, 0 15 M0 45 C0.17 38.05, -1.12 29.79, 0 15 M0 15 C-2.94 5.16, 2.87 2.35, 15 0 M0 15 C-2.79 2.52, 5.06 4.57, 15 0" stroke="#000000" stroke-width="1" fill="none"></path></g><g transform="translate(482.6796875 45.5625) rotate(0 79 25)"><text x="79" y="18" font-family="Virgil, Segoe UI Emoji" font-size="20px" fill="#000000" text-anchor="middle" style="white-space: pre;" direction="ltr">cmp</text><text x="79" y="43" font-family="Virgil, Segoe UI Emoji" font-size="20px" fill="#000000" text-anchor="middle" style="white-space: pre;" direction="ltr">completion plugin</text></g><g transform="translate(10 488.19921875) rotate(0 455 18)"><text x="0" y="14" font-family="Helvetica, Segoe UI Emoji" font-size="16px" fill="#000000" text-anchor="start" style="white-space: pre;" direction="ltr">- Neovim doesn't provide a way for non-LSP sources to hook into its LSP client</text><text x="0" y="32" font-family="Helvetica, Segoe UI Emoji" font-size="16px" fill="#000000" text-anchor="start" style="white-space: pre;" direction="ltr">- null-ls is an attempt to bridge that gap and simplify the process of creating, sharing, and setting up LSP sources using pure Lua</text></g><g transform="translate(721.91796875 10) rotate(0 85.5 38)"><text x="0" y="15" font-family="Cascadia, Segoe UI Emoji" font-size="16px" fill="#000000" text-anchor="start" style="white-space: pre;" direction="ltr">sources</text><text x="0" y="34" font-family="Cascadia, Segoe UI Emoji" font-size="16px" fill="#000000" text-anchor="start" style="white-space: pre;" direction="ltr">    - nvim_lsp</text><text x="0" y="53" font-family="Cascadia, Segoe UI Emoji" font-size="16px" fill="#000000" text-anchor="start" style="white-space: pre;" direction="ltr">    - vsnip</text><text x="0" y="72" font-family="Cascadia, Segoe UI Emoji" font-size="16px" fill="#000000" text-anchor="start" style="white-space: pre;" direction="ltr">    - copilot etc.</text></g><g stroke-linecap="round" transform="translate(262.30078125 198.00390625) rotate(0 115.736328125 30.130859375)"><path d="M5.71 2.32 C5.71 2.32, 5.71 2.32, 5.71 2.32 M5.71 2.32 C5.71 2.32, 5.71 2.32, 5.71 2.32 M1.52 13.24 C8.98 6.52, 10.86 6.25, 12.67 0.41 M1.52 13.24 C3.5 8.79, 6.83 6.85, 12.67 0.41 M1.91 18.89 C6.79 15.62, 13.3 5.23, 17 1.53 M1.91 18.89 C6.66 10.52, 13.05 3.37, 17 1.53 M1.65 25.28 C6.56 17.68, 16.44 11.05, 21.99 1.89 M1.65 25.28 C8.68 19.89, 12.12 9.4, 21.99 1.89 M2.04 30.93 C11.67 20.52, 19.37 12.02, 27.63 1.49 M2.04 30.93 C10.69 19.99, 16.38 11.43, 27.63 1.49 M1.78 37.32 C9.32 28.5, 10.82 23.75, 32.62 1.85 M1.78 37.32 C9.93 26.8, 17.13 20.92, 32.62 1.85 M1.52 43.72 C11.89 29.22, 20.68 23.47, 38.26 1.46 M1.52 43.72 C14 32.12, 27.16 18.39, 38.26 1.46 M1.26 50.12 C12.12 36.54, 18.81 28.82, 43.25 1.82 M1.26 50.12 C13.99 34.9, 24.48 21.88, 43.25 1.82 M2.31 55.01 C15.44 33.86, 36.79 12.12, 48.89 1.42 M2.31 55.01 C13.92 37.23, 29.95 23.14, 48.89 1.42 M5.98 56.88 C20.65 43.04, 32.65 26.53, 53.88 1.78 M5.98 56.88 C16.84 43.78, 28.68 30.3, 53.88 1.78 M9 59.5 C28.3 43.39, 42.62 21.34, 58.86 2.14 M9 59.5 C19.85 45.75, 34.51 31.68, 58.86 2.14 M13.99 59.86 C30.01 39.96, 54.81 17.73, 64.51 1.75 M13.99 59.86 C33.37 36.79, 50.24 17.09, 64.51 1.75 M19.63 59.47 C31.36 42.16, 39.93 30.35, 69.49 2.11 M19.63 59.47 C37.46 37.64, 55.97 16.16, 69.49 2.11 M24.62 59.83 C42.39 45.82, 54.76 25, 75.14 1.71 M24.62 59.83 C34.73 48.41, 46.46 37.99, 75.14 1.71 M30.26 59.43 C41.48 47.04, 59.05 26.8, 80.12 2.07 M30.26 59.43 C47.83 38.37, 67.07 16.25, 80.12 2.07 M35.25 59.79 C50.04 44.66, 59.25 28.43, 85.77 1.68 M35.25 59.79 C51.61 41.2, 70.05 24.29, 85.77 1.68 M40.24 60.15 C58.29 43.93, 71.29 26.05, 90.75 2.04 M40.24 60.15 C57.55 40.42, 73.56 19.83, 90.75 2.04 M45.88 59.76 C61.04 48.36, 70.1 31.93, 96.4 1.65 M45.88 59.76 C59.29 45.05, 74.42 26.54, 96.4 1.65 M50.87 60.12 C63.33 44.81, 84.39 23.85, 101.38 2.01 M50.87 60.12 C63.93 49.07, 73.6 35.26, 101.38 2.01 M56.51 59.72 C74.82 40.45, 94.51 19.48, 106.37 2.37 M56.51 59.72 C67.15 44.76, 80.63 32.56, 106.37 2.37 M61.5 60.08 C71.77 43.46, 85.46 35.13, 112.01 1.97 M61.5 60.08 C76.73 46.17, 88.95 30.2, 112.01 1.97 M67.14 59.69 C82.56 47.75, 92.1 36.53, 117 2.33 M67.14 59.69 C76.42 48.11, 89.34 37.7, 117 2.33 M72.13 60.05 C90.75 41.6, 104.68 21.38, 122.64 1.94 M72.13 60.05 C84.82 43.07, 100.42 24.7, 122.64 1.94 M77.77 59.65 C88.62 50.12, 101.3 35.6, 127.63 2.3 M77.77 59.65 C88.82 47.04, 100.51 35.17, 127.63 2.3 M82.76 60.01 C91.32 47.49, 104.98 35.09, 133.27 1.9 M82.76 60.01 C95.61 45.89, 107.71 32.79, 133.27 1.9 M87.74 60.38 C100.96 45.65, 116.65 29.76, 138.26 2.26 M87.74 60.38 C107.22 35.76, 129.04 13.48, 138.26 2.26 M93.39 59.98 C104.25 48.63, 116.52 31.16, 143.9 1.87 M93.39 59.98 C104.84 49.86, 117.36 37.31, 143.9 1.87 M98.37 60.34 C116.07 41.69, 132.85 21.83, 148.89 2.23 M98.37 60.34 C113.05 47.19, 124.91 32.33, 148.89 2.23 M104.02 59.95 C116.61 44.16, 138.54 21.61, 153.88 2.59 M104.02 59.95 C117.57 46.73, 131.28 28.67, 153.88 2.59 M109 60.31 C130.91 36.65, 151.79 13.31, 159.52 2.19 M109 60.31 C120.03 47.41, 132.7 31.07, 159.52 2.19 M114.65 59.91 C133.24 34.22, 155.75 12.4, 164.51 2.55 M114.65 59.91 C133.16 40.57, 154.48 16.44, 164.51 2.55 M119.63 60.27 C133.87 42.47, 150.59 22.5, 170.15 2.16 M119.63 60.27 C138.22 38.74, 156.24 17.79, 170.15 2.16 M125.28 59.88 C134.34 45.14, 150.91 29.81, 175.14 2.52 M125.28 59.88 C137.45 45.65, 150.47 31.08, 175.14 2.52 M130.26 60.24 C150.43 45.2, 161.94 18.73, 180.78 2.12 M130.26 60.24 C143.9 42.7, 158.86 24.47, 180.78 2.12 M135.25 60.6 C154.55 37.34, 168.73 21.37, 185.77 2.48 M135.25 60.6 C147.74 42.96, 164.71 26.33, 185.77 2.48 M140.9 60.2 C151.32 44.55, 169.62 31.72, 191.41 2.09 M140.9 60.2 C151.9 47.07, 161.92 35.2, 191.41 2.09 M145.88 60.56 C156.91 46.89, 170.71 38.21, 196.4 2.45 M145.88 60.56 C157.95 47.14, 165.18 35.99, 196.4 2.45 M151.53 60.17 C172.78 36.7, 185.13 16.84, 201.39 2.81 M151.53 60.17 C165.01 41.82, 179.96 25.95, 201.39 2.81 M156.51 60.53 C169.02 43.76, 187.07 28.76, 207.03 2.42 M156.51 60.53 C169.96 46.05, 184.79 30.59, 207.03 2.42 M162.16 60.13 C172.23 44.18, 185.73 37.22, 212.02 2.78 M162.16 60.13 C178.99 43.09, 192.18 26.55, 212.02 2.78 M167.14 60.49 C186.27 37.94, 200.42 18.19, 217.66 2.38 M167.14 60.49 C183.15 43, 197.96 22.83, 217.66 2.38 M172.79 60.1 C189.97 39.08, 213.65 11.89, 223.96 1.23 M172.79 60.1 C183.93 47.16, 193.34 36.64, 223.96 1.23 M177.77 60.46 C198.63 36.02, 212.66 18.85, 226.98 3.86 M177.77 60.46 C194.35 44.51, 208.53 24.36, 226.98 3.86 M182.76 60.82 C198.19 39.38, 218.67 18.01, 230.65 5.73 M182.76 60.82 C196.31 45.23, 210.4 30.62, 230.65 5.73 M188.4 60.42 C208.02 39.29, 222.37 20.38, 232.36 9.86 M188.4 60.42 C197.88 49.51, 206.45 38.22, 232.36 9.86 M193.39 60.78 C208.08 48.05, 218.56 27.76, 234.07 13.99 M193.39 60.78 C203.6 47.71, 217.79 32.81, 234.07 13.99 M199.03 60.39 C208.02 47.5, 221.59 41.37, 233.8 20.39 M199.03 60.39 C206.86 52.66, 214.33 43.54, 233.8 20.39 M204.02 60.75 C208 53.89, 219.62 45.09, 233.54 26.79 M204.02 60.75 C210.73 49.94, 218 44.58, 233.54 26.79 M209.66 60.36 C216.78 52.02, 226.92 42.26, 233.94 32.43 M209.66 60.36 C215.29 53.25, 221.42 48.72, 233.94 32.43 M214.65 60.72 C219.34 56.38, 224.56 48.14, 233.68 38.83 M214.65 60.72 C218.16 54.5, 225.09 49.62, 233.68 38.83 M218.32 62.59 C227.14 54.7, 227.97 53.68, 233.41 45.23 M218.32 62.59 C223.22 56.73, 229.66 48.48, 233.41 45.23" stroke="#228be6" stroke-width="0.5" fill="none"></path><path d="M15.07 0 M15.07 0 C63.25 0.01, 117.23 1.87, 216.41 0 M15.07 0 C95.88 -1.88, 174.58 -0.82, 216.41 0 M216.41 0 C226.54 -3.86, 228.79 5.51, 231.47 15.07 M216.41 0 C230.55 2.46, 233.02 6.22, 231.47 15.07 M231.47 15.07 C229.13 21.18, 231.9 31.09, 231.47 45.2 M231.47 15.07 C230.08 25.04, 231.14 35.75, 231.47 45.2 M231.47 45.2 C231.29 54.6, 225.86 56.34, 216.41 60.26 M231.47 45.2 C227.87 57.81, 225.35 62.35, 216.41 60.26 M216.41 60.26 C174.84 62.76, 137.68 61.84, 15.07 60.26 M216.41 60.26 C172.86 57.74, 127.22 56.67, 15.07 60.26 M15.07 60.26 C5.16 56.49, -3.85 57.98, 0 45.2 M15.07 60.26 C4.24 63.16, 2.99 52.74, 0 45.2 M0 45.2 C2.97 34.1, 1.98 25.94, 0 15.07 M0 45.2 C-1.76 37.42, -1.07 28.84, 0 15.07 M0 15.07 C-3.02 5.14, 5.65 -1.91, 15.07 0 M0 15.07 C-4.1 6.83, 1.76 1.58, 15.07 0" stroke="#000000" stroke-width="1" fill="none"></path></g><g transform="translate(337.537109375 215.634765625) rotate(0 40.5 12.5)"><text x="40.5" y="18" font-family="Virgil, Segoe UI Emoji" font-size="20px" fill="#000000" text-anchor="middle" style="white-space: pre;" direction="ltr">nvim_lsp</text></g><g stroke-linecap="round"><g transform="translate(347.47750284750055 371.75390625) rotate(0 7.233772405670436 -53.614829800031146)"><path d="M-0.96 0.83 C-1.1 -7.61, -3.1 -33.66, -0.23 -51.51 C2.64 -69.36, 13.75 -97.05, 16.23 -106.26 M0.74 0.22 C0.47 -8.5, -3.16 -35.32, -0.67 -53.37 C1.82 -71.41, 13.2 -98.78, 15.71 -108.06" stroke="#000000" stroke-width="1" fill="none"></path></g><g transform="translate(347.47750284750055 371.75390625) rotate(0 7.233772405670436 -53.614829800031146)"><path d="M17.86 -77.55 C17.28 -88.58, 17.88 -101.3, 16.61 -109.27 M17.25 -78.78 C16.61 -86.57, 16.57 -94.15, 15.41 -107.85" stroke="#000000" stroke-width="1" fill="none"></path></g><g transform="translate(347.47750284750055 371.75390625) rotate(0 7.233772405670436 -53.614829800031146)"><path d="M-0.89 -83.81 C5.07 -92.49, 12.27 -103, 16.61 -109.27 M-1.51 -85.05 C2.83 -91.34, 7.77 -97.25, 15.41 -107.85" stroke="#000000" stroke-width="1" fill="none"></path></g></g><g stroke-linecap="round"><g transform="translate(398.69025128473004 192.66015625) rotate(0 54.7326573978462 -40.838166918605566)"><path d="M0.51 0.45 C11.98 -5.86, 51.38 -23.14, 69.65 -36.9 C87.92 -50.67, 103.55 -74.7, 110.14 -82.13 M-0.68 -0.36 C10.65 -6.64, 50.85 -22.46, 69.24 -35.93 C87.63 -49.4, 103 -73.78, 109.66 -81.19" stroke="#000000" stroke-width="1" fill="none"></path></g><g transform="translate(398.69025128473004 192.66015625) rotate(0 54.7326573978462 -40.838166918605566)"><path d="M101.16 -50.93 C101.8 -62.32, 105.8 -74.45, 109.54 -79.45 M100.67 -52.17 C104.14 -63.74, 107.48 -74.2, 110.63 -81.16" stroke="#000000" stroke-width="1" fill="none"></path></g><g transform="translate(398.69025128473004 192.66015625) rotate(0 54.7326573978462 -40.838166918605566)"><path d="M84.98 -63.55 C91.7 -70.36, 101.67 -77.82, 109.54 -79.45 M84.49 -64.8 C94.11 -71.66, 103.54 -77.36, 110.63 -81.16" stroke="#000000" stroke-width="1" fill="none"></path></g></g></svg>